<svg xmlns="http://www.w3.org/2000/svg" width="696" height="304" class="bob" font-family="arial" font-size="14"><defs><marker id="triangle" markerHeight="10" markerUnits="strokeWidth" markerWidth="10" orient="auto" refX="15" refY="10" viewBox="0 0 50 20"><path d="M 0 0 L 30 10 L 0 20 z"/></marker></defs><style>circle,line,path{stroke:#000;stroke-width:2;stroke-opacity:1;fill-opacity:1;stroke-linecap:round;stroke-linejoin:miter}circle.open{fill:transparent}</style><path fill="none" d="M 44 0 L 44 16 M 44 0 L 44 16 M 284 0 L 284 16 M 284 0 L 284 16 M 412 0 L 412 16 M 412 0 L 412 16 M 652 0 L 652 16 M 652 0 L 652 16 M 44 20 L 44 16 M 44 28 L 44 32 M 48 24 L 56 24 M 48 24 L 56 24 L 64 24 M 56 24 L 64 24 L 72 24 M 64 24 L 72 24 L 80 24 M 72 24 L 80 24 L 88 24 M 80 24 L 88 24 L 96 24 M 88 24 L 96 24 L 104 24 M 96 24 L 104 24 L 112 24 M 104 24 L 112 24 L 120 24 M 112 24 L 120 24 L 128 24 M 120 24 L 128 24 L 136 24 M 128 24 L 136 24 L 144 24 M 136 24 L 144 24 M 150 28 A 8 8 0 0 0 144 24 M 150 28 L 152 32 M 284 16 L 284 32 M 284 16 L 284 32 M 412 20 L 412 16 M 412 28 L 412 32 M 416 24 L 424 24 M 416 24 L 424 24 L 432 24 M 424 24 L 432 24 L 440 24 M 432 24 L 440 24 L 448 24 M 440 24 L 448 24 L 456 24 M 448 24 L 456 24 L 464 24 M 456 24 L 464 24 L 472 24 M 464 24 L 472 24 L 480 24 M 472 24 L 480 24 L 488 24 M 480 24 L 488 24 L 496 24 M 488 24 L 496 24 L 504 24 M 496 24 L 504 24 L 512 24 M 504 24 L 512 24 M 518 28 A 8 8 0 0 0 512 24 M 518 28 L 520 32 M 652 16 L 652 32 M 652 16 L 652 32 M 44 32 L 44 48 M 44 32 L 44 48 M 160 48 L 152 32 L 160 48 M 284 32 L 284 48 M 284 32 L 284 48 M 412 32 L 412 48 M 412 32 L 412 48 M 528 48 L 520 32 L 528 48 M 652 32 L 652 48 M 652 32 L 652 48 M 44 48 L 44 64 M 44 48 L 44 64 M 168 64 L 160 48 L 168 64 M 284 48 L 284 64 M 284 48 L 284 64 M 412 48 L 412 64 M 412 48 L 412 64 M 536 64 L 528 48 L 536 64 M 652 48 L 652 64 M 652 48 L 652 64 M 44 64 L 44 80 M 44 64 L 44 80 M 168 64 L 170 68 A 8 8 0 0 0 176 72 L 184 72 M 176 72 L 184 72 L 192 72 M 184 72 L 192 72 L 200 72 M 192 72 L 200 72 L 208 72 M 200 72 L 208 72 L 216 72 M 208 72 L 216 72 L 224 72 M 216 72 L 224 72 L 232 72 M 224 72 L 232 72 L 240 72 M 232 72 L 240 72 L 248 72 M 240 72 L 248 72 L 256 72 M 248 72 L 256 72 L 264 72 M 256 72 L 264 72 M 284 64 L 284 80 M 284 64 L 284 80 M 412 68 L 412 64 M 412 76 L 412 80 M 416 72 L 424 72 M 416 72 L 424 72 L 432 72 M 424 72 L 432 72 L 440 72 M 432 72 L 440 72 L 448 72 M 440 72 L 448 72 L 456 72 M 448 72 L 456 72 L 464 72 M 456 72 L 464 72 L 472 72 M 464 72 L 472 72 L 480 72 M 472 72 L 480 72 L 488 72 M 480 72 L 488 72 L 496 72 M 488 72 L 496 72 L 504 72 M 496 72 L 504 72 L 512 72 M 504 72 L 512 72 M 518 76 A 8 8 0 0 0 512 72 M 518 76 L 520 80 M 536 64 L 538 68 A 8 8 0 0 0 544 72 L 552 72 M 544 72 L 552 72 L 560 72 M 552 72 L 560 72 L 568 72 M 560 72 L 568 72 L 576 72 M 568 72 L 576 72 L 584 72 M 576 72 L 584 72 L 592 72 M 584 72 L 592 72 L 600 72 M 592 72 L 600 72 L 608 72 M 600 72 L 608 72 L 616 72 M 608 72 L 616 72 L 624 72 M 616 72 L 624 72 L 632 72 M 624 72 L 632 72 M 652 64 L 652 80 M 652 64 L 652 80 M 44 80 L 44 96 M 44 80 L 44 96 M 176 88 A 8 8 0 0 0 170 92 L 168 96 M 176 88 L 184 88 M 176 88 L 184 88 L 192 88 M 184 88 L 192 88 L 200 88 M 192 88 L 200 88 L 208 88 M 200 88 L 208 88 L 216 88 M 208 88 L 216 88 L 224 88 M 216 88 L 224 88 L 232 88 M 224 88 L 232 88 L 240 88 M 232 88 L 240 88 L 248 88 M 240 88 L 248 88 L 256 88 M 248 88 L 256 88 L 264 88 M 256 88 L 264 88 L 272 88 M 264 88 L 272 88 L 280 88 M 272 88 L 280 88 M 284 84 L 284 80 M 284 92 L 284 96 M 412 80 L 412 96 M 412 80 L 412 96 M 528 96 L 520 80 L 528 96 M 544 88 A 8 8 0 0 0 538 92 L 536 96 M 544 88 L 552 88 M 544 88 L 552 88 L 560 88 M 552 88 L 560 88 L 568 88 M 560 88 L 568 88 L 576 88 M 568 88 L 576 88 L 584 88 M 576 88 L 584 88 L 592 88 M 584 88 L 592 88 L 600 88 M 592 88 L 600 88 L 608 88 M 600 88 L 608 88 L 616 88 M 608 88 L 616 88 L 624 88 M 616 88 L 624 88 L 632 88 M 624 88 L 632 88 L 640 88 M 632 88 L 640 88 L 648 88 M 640 88 L 648 88 M 652 84 L 652 80 M 652 92 L 652 96 M 44 96 L 44 112 M 44 96 L 44 112 M 160 112 L 168 96 L 160 112 M 284 96 L 284 112 M 284 96 L 284 112 M 412 96 L 412 112 M 412 96 L 412 112 M 532 104 L 528 96 M 532 104 L 536 96 M 532 104 L 528 112 M 532 104 L 536 112 M 652 96 L 652 112 M 652 96 L 652 112 M 44 112 L 44 128 M 44 112 L 44 128 M 152 128 L 160 112 L 152 128 M 284 112 L 284 128 M 284 112 L 284 128 M 412 116 L 412 112 M 412 124 L 412 128 M 416 120 L 424 120 M 416 120 L 424 120 L 432 120 M 424 120 L 432 120 L 440 120 M 432 120 L 440 120 L 448 120 M 440 120 L 448 120 L 456 120 M 448 120 L 456 120 L 464 120 M 456 120 L 464 120 L 472 120 M 464 120 L 472 120 L 480 120 M 472 120 L 480 120 L 488 120 M 480 120 L 488 120 L 496 120 M 488 120 L 496 120 L 504 120 M 496 120 L 504 120 L 512 120 M 504 120 L 512 120 M 518 124 A 8 8 0 0 0 512 120 M 518 124 L 520 128 L 528 112 L 520 128 M 536 112 L 538 116 A 8 8 0 0 0 544 120 L 552 120 M 544 120 L 552 120 L 560 120 M 552 120 L 560 120 L 568 120 M 560 120 L 568 120 L 576 120 M 568 120 L 576 120 L 584 120 M 576 120 L 584 120 L 592 120 M 584 120 L 592 120 L 600 120 M 592 120 L 600 120 L 608 120 M 600 120 L 608 120 L 616 120 M 608 120 L 616 120 L 624 120 M 616 120 L 624 120 L 632 120 M 624 120 L 632 120 M 652 112 L 652 128 M 652 112 L 652 128 M 44 128 L 44 144 M 44 128 L 44 144 M 56 136 L 64 136 M 56 136 L 64 136 L 72 136 M 64 136 L 72 136 L 80 136 M 72 136 L 80 136 L 88 136 M 80 136 L 88 136 L 96 136 M 88 136 L 96 136 L 104 136 M 96 136 L 104 136 L 112 136 M 104 136 L 112 136 L 120 136 M 112 136 L 120 136 L 128 136 M 120 136 L 128 136 L 136 136 M 128 136 L 136 136 L 144 136 M 136 136 L 144 136 A 8 8 0 0 0 150 132 L 152 128 M 284 128 L 284 144 M 284 128 L 284 144 M 412 128 L 412 144 M 412 128 L 412 144 M 424 136 L 432 136 M 424 136 L 432 136 L 440 136 M 432 136 L 440 136 L 448 136 M 440 136 L 448 136 L 456 136 M 448 136 L 456 136 L 464 136 M 456 136 L 464 136 L 472 136 M 464 136 L 472 136 L 480 136 M 472 136 L 480 136 L 488 136 M 480 136 L 488 136 L 496 136 M 488 136 L 496 136 L 504 136 M 496 136 L 504 136 L 512 136 M 504 136 L 512 136 A 8 8 0 0 0 518 132 L 520 128 M 528 144 L 520 128 L 528 144 M 544 136 A 8 8 0 0 0 538 140 L 536 144 M 544 136 L 552 136 M 544 136 L 552 136 L 560 136 M 552 136 L 560 136 L 568 136 M 560 136 L 568 136 L 576 136 M 568 136 L 576 136 L 584 136 M 576 136 L 584 136 L 592 136 M 584 136 L 592 136 L 600 136 M 592 136 L 600 136 L 608 136 M 600 136 L 608 136 L 616 136 M 608 136 L 616 136 L 624 136 M 616 136 L 624 136 L 632 136 M 624 136 L 632 136 L 640 136 M 632 136 L 640 136 L 648 136 M 640 136 L 648 136 M 652 132 L 652 128 M 652 140 L 652 144 M 44 148 L 44 144 M 44 156 L 44 160 M 48 152 L 56 152 M 48 152 L 56 152 L 64 152 M 56 152 L 64 152 L 72 152 M 64 152 L 72 152 L 80 152 M 72 152 L 80 152 L 88 152 M 80 152 L 88 152 L 96 152 M 88 152 L 96 152 L 104 152 M 96 152 L 104 152 L 112 152 M 104 152 L 112 152 L 120 152 M 112 152 L 120 152 L 128 152 M 120 152 L 128 152 L 136 152 M 128 152 L 136 152 L 144 152 M 136 152 L 144 152 M 150 156 A 8 8 0 0 0 144 152 M 150 156 L 152 160 M 284 144 L 284 160 M 284 144 L 284 160 M 412 144 L 412 160 M 412 144 L 412 160 M 532 152 L 528 144 M 532 152 L 536 144 M 532 152 L 528 160 M 532 152 L 536 160 M 652 144 L 652 160 M 652 144 L 652 160 M 44 160 L 44 176 M 44 160 L 44 176 M 160 176 L 152 160 L 160 176 M 284 160 L 284 176 M 284 160 L 284 176 M 412 164 L 412 160 M 412 172 L 412 176 M 416 168 L 424 168 M 416 168 L 424 168 L 432 168 M 424 168 L 432 168 L 440 168 M 432 168 L 440 168 L 448 168 M 440 168 L 448 168 L 456 168 M 448 168 L 456 168 L 464 168 M 456 168 L 464 168 L 472 168 M 464 168 L 472 168 L 480 168 M 472 168 L 480 168 L 488 168 M 480 168 L 488 168 L 496 168 M 488 168 L 496 168 L 504 168 M 496 168 L 504 168 L 512 168 M 504 168 L 512 168 M 518 172 A 8 8 0 0 0 512 168 M 518 172 L 520 176 L 528 160 L 520 176 M 536 160 L 538 164 A 8 8 0 0 0 544 168 L 552 168 M 544 168 L 552 168 L 560 168 M 552 168 L 560 168 L 568 168 M 560 168 L 568 168 L 576 168 M 568 168 L 576 168 L 584 168 M 576 168 L 584 168 L 592 168 M 584 168 L 592 168 L 600 168 M 592 168 L 600 168 L 608 168 M 600 168 L 608 168 L 616 168 M 608 168 L 616 168 L 624 168 M 616 168 L 624 168 L 632 168 M 624 168 L 632 168 M 652 160 L 652 176 M 652 160 L 652 176 M 44 176 L 44 192 M 44 176 L 44 192 M 168 192 L 160 176 L 168 192 M 284 176 L 284 192 M 284 176 L 284 192 M 412 176 L 412 192 M 412 176 L 412 192 M 424 184 L 432 184 M 424 184 L 432 184 L 440 184 M 432 184 L 440 184 L 448 184 M 440 184 L 448 184 L 456 184 M 448 184 L 456 184 L 464 184 M 456 184 L 464 184 L 472 184 M 464 184 L 472 184 L 480 184 M 472 184 L 480 184 L 488 184 M 480 184 L 488 184 L 496 184 M 488 184 L 496 184 L 504 184 M 496 184 L 504 184 L 512 184 M 504 184 L 512 184 A 8 8 0 0 0 518 180 L 520 176 M 528 192 L 520 176 L 528 192 M 544 184 A 8 8 0 0 0 538 188 L 536 192 M 544 184 L 552 184 M 544 184 L 552 184 L 560 184 M 552 184 L 560 184 L 568 184 M 560 184 L 568 184 L 576 184 M 568 184 L 576 184 L 584 184 M 576 184 L 584 184 L 592 184 M 584 184 L 592 184 L 600 184 M 592 184 L 600 184 L 608 184 M 600 184 L 608 184 L 616 184 M 608 184 L 616 184 L 624 184 M 616 184 L 624 184 L 632 184 M 624 184 L 632 184 L 640 184 M 632 184 L 640 184 L 648 184 M 640 184 L 648 184 M 652 180 L 652 176 M 652 188 L 652 192 M 44 192 L 44 208 M 44 192 L 44 208 M 168 192 L 170 196 A 8 8 0 0 0 176 200 L 184 200 M 176 200 L 184 200 L 192 200 M 184 200 L 192 200 L 200 200 M 192 200 L 200 200 L 208 200 M 200 200 L 208 200 L 216 200 M 208 200 L 216 200 L 224 200 M 216 200 L 224 200 L 232 200 M 224 200 L 232 200 L 240 200 M 232 200 L 240 200 L 248 200 M 240 200 L 248 200 L 256 200 M 248 200 L 256 200 L 264 200 M 256 200 L 264 200 M 284 192 L 284 208 M 284 192 L 284 208 M 412 192 L 412 208 M 412 192 L 412 208 M 532 200 L 528 192 M 532 200 L 536 192 M 532 200 L 528 208 M 532 200 L 536 208 M 652 192 L 652 208 M 652 192 L 652 208 M 44 208 L 44 224 M 44 208 L 44 224 M 176 216 A 8 8 0 0 0 170 220 L 168 224 M 176 216 L 184 216 M 176 216 L 184 216 L 192 216 M 184 216 L 192 216 L 200 216 M 192 216 L 200 216 L 208 216 M 200 216 L 208 216 L 216 216 M 208 216 L 216 216 L 224 216 M 216 216 L 224 216 L 232 216 M 224 216 L 232 216 L 240 216 M 232 216 L 240 216 L 248 216 M 240 216 L 248 216 L 256 216 M 248 216 L 256 216 L 264 216 M 256 216 L 264 216 L 272 216 M 264 216 L 272 216 L 280 216 M 272 216 L 280 216 M 284 212 L 284 208 M 284 220 L 284 224 M 412 208 L 412 224 M 412 208 L 412 224 M 520 224 L 528 208 L 520 224 M 536 208 L 538 212 A 8 8 0 0 0 544 216 L 552 216 M 544 216 L 552 216 L 560 216 M 552 216 L 560 216 L 568 216 M 560 216 L 568 216 L 576 216 M 568 216 L 576 216 L 584 216 M 576 216 L 584 216 L 592 216 M 584 216 L 592 216 L 600 216 M 592 216 L 600 216 L 608 216 M 600 216 L 608 216 L 616 216 M 608 216 L 616 216 L 624 216 M 616 216 L 624 216 L 632 216 M 624 216 L 632 216 M 652 208 L 652 224 M 652 208 L 652 224 M 44 224 L 44 240 M 44 224 L 44 240 M 160 240 L 168 224 L 160 240 M 284 224 L 284 240 M 284 224 L 284 240 M 412 224 L 412 240 M 412 224 L 412 240 M 424 232 L 432 232 M 424 232 L 432 232 L 440 232 M 432 232 L 440 232 L 448 232 M 440 232 L 448 232 L 456 232 M 448 232 L 456 232 L 464 232 M 456 232 L 464 232 L 472 232 M 464 232 L 472 232 L 480 232 M 472 232 L 480 232 L 488 232 M 480 232 L 488 232 L 496 232 M 488 232 L 496 232 L 504 232 M 496 232 L 504 232 L 512 232 M 504 232 L 512 232 A 8 8 0 0 0 518 228 L 520 224 M 544 232 A 8 8 0 0 0 538 236 L 536 240 M 544 232 L 552 232 M 544 232 L 552 232 L 560 232 M 552 232 L 560 232 L 568 232 M 560 232 L 568 232 L 576 232 M 568 232 L 576 232 L 584 232 M 576 232 L 584 232 L 592 232 M 584 232 L 592 232 L 600 232 M 592 232 L 600 232 L 608 232 M 600 232 L 608 232 L 616 232 M 608 232 L 616 232 L 624 232 M 616 232 L 624 232 L 632 232 M 624 232 L 632 232 L 640 232 M 632 232 L 640 232 L 648 232 M 640 232 L 648 232 M 652 228 L 652 224 M 652 236 L 652 240 M 44 240 L 44 256 M 44 240 L 44 256 M 152 256 L 160 240 L 152 256 M 284 240 L 284 256 M 284 240 L 284 256 M 412 240 L 412 256 M 412 240 L 412 256 M 528 256 L 536 240 L 528 256 M 652 240 L 652 256 M 652 240 L 652 256 M 44 256 L 44 272 M 44 256 L 44 272 M 56 264 L 64 264 M 56 264 L 64 264 L 72 264 M 64 264 L 72 264 L 80 264 M 72 264 L 80 264 L 88 264 M 80 264 L 88 264 L 96 264 M 88 264 L 96 264 L 104 264 M 96 264 L 104 264 L 112 264 M 104 264 L 112 264 L 120 264 M 112 264 L 120 264 L 128 264 M 120 264 L 128 264 L 136 264 M 128 264 L 136 264 L 144 264 M 136 264 L 144 264 A 8 8 0 0 0 150 260 L 152 256 M 284 256 L 284 272 M 284 256 L 284 272 M 412 256 L 412 272 M 412 256 L 412 272 M 520 272 L 528 256 L 520 272 M 652 256 L 652 272 M 652 256 L 652 272 M 424 280 L 432 280 M 424 280 L 432 280 L 440 280 M 432 280 L 440 280 L 448 280 M 440 280 L 448 280 L 456 280 M 448 280 L 456 280 L 464 280 M 456 280 L 464 280 L 472 280 M 464 280 L 472 280 L 480 280 M 472 280 L 480 280 L 488 280 M 480 280 L 488 280 L 496 280 M 488 280 L 496 280 L 504 280 M 496 280 L 504 280 L 512 280 M 504 280 L 512 280 A 8 8 0 0 0 518 276 L 520 272"/><path fill="none" stroke-dasharray="3 3"/><line x1="264" x2="276" y1="72" y2="72" marker-end="url(#triangle)"/><line x1="264" x2="276" y1="72" y2="72" marker-end="url(#triangle)"/><line x1="272" x2="276" y1="72" y2="72" marker-end="url(#triangle)"/><line x1="632" x2="644" y1="72" y2="72" marker-end="url(#triangle)"/><line x1="632" x2="644" y1="72" y2="72" marker-end="url(#triangle)"/><line x1="640" x2="644" y1="72" y2="72" marker-end="url(#triangle)"/><line x1="632" x2="644" y1="120" y2="120" marker-end="url(#triangle)"/><line x1="632" x2="644" y1="120" y2="120" marker-end="url(#triangle)"/><line x1="640" x2="644" y1="120" y2="120" marker-end="url(#triangle)"/><line x1="56" x2="52" y1="136" y2="136" marker-end="url(#triangle)"/><line x1="424" x2="420" y1="136" y2="136" marker-end="url(#triangle)"/><line x1="632" x2="644" y1="168" y2="168" marker-end="url(#triangle)"/><line x1="632" x2="644" y1="168" y2="168" marker-end="url(#triangle)"/><line x1="640" x2="644" y1="168" y2="168" marker-end="url(#triangle)"/><line x1="424" x2="420" y1="184" y2="184" marker-end="url(#triangle)"/><line x1="264" x2="276" y1="200" y2="200" marker-end="url(#triangle)"/><line x1="264" x2="276" y1="200" y2="200" marker-end="url(#triangle)"/><line x1="272" x2="276" y1="200" y2="200" marker-end="url(#triangle)"/><line x1="632" x2="644" y1="216" y2="216" marker-end="url(#triangle)"/><line x1="632" x2="644" y1="216" y2="216" marker-end="url(#triangle)"/><line x1="640" x2="644" y1="216" y2="216" marker-end="url(#triangle)"/><line x1="424" x2="420" y1="232" y2="232" marker-end="url(#triangle)"/><line x1="56" x2="52" y1="264" y2="264" marker-end="url(#triangle)"/><line x1="44" x2="44" y1="272" y2="300" marker-end="url(#triangle)"/><line x1="44" x2="44" y1="272" y2="300" marker-end="url(#triangle)"/><line x1="284" x2="284" y1="272" y2="300" marker-end="url(#triangle)"/><line x1="284" x2="284" y1="272" y2="300" marker-end="url(#triangle)"/><line x1="412" x2="412" y1="272" y2="300" marker-end="url(#triangle)"/><line x1="412" x2="412" y1="272" y2="300" marker-end="url(#triangle)"/><line x1="424" x2="420" y1="280" y2="280" marker-end="url(#triangle)"/><line x1="652" x2="652" y1="272" y2="300" marker-end="url(#triangle)"/><line x1="652" x2="652" y1="272" y2="300" marker-end="url(#triangle)"/><line x1="44" x2="44" y1="288" y2="300" marker-end="url(#triangle)"/><line x1="284" x2="284" y1="288" y2="300" marker-end="url(#triangle)"/><line x1="412" x2="412" y1="288" y2="300" marker-end="url(#triangle)"/><line x1="652" x2="652" y1="288" y2="300" marker-end="url(#triangle)"/><text x="49" y="12">t</text><text x="177" y="12">Synchronous</text><text x="289" y="12">t</text><text x="417" y="12">t</text><text x="537" y="12">Asynchronous</text><text x="657" y="12">t</text><text x="9" y="28">PSH</text><text x="377" y="28">PSH</text><text x="377" y="76">PSH</text><text x="297" y="92">ACK</text><text x="665" y="92">ACK</text><text x="377" y="124">PSH</text><text x="665" y="140">ACK</text><text x="9" y="156">PSH</text><text x="377" y="172">PSH</text><text x="665" y="188">ACK</text><text x="297" y="220">ACK</text><text x="665" y="236">ACK</text><circle cx="44" cy="24" r="4" class="open"/><circle cx="44" cy="24" r="4" class="open"/><circle cx="44" cy="24" r="4" class="open"/><circle cx="412" cy="24" r="4" class="open"/><circle cx="412" cy="24" r="4" class="open"/><circle cx="412" cy="24" r="4" class="open"/><circle cx="412" cy="72" r="4" class="open"/><circle cx="412" cy="72" r="4" class="open"/><circle cx="412" cy="72" r="4" class="open"/><circle cx="284" cy="88" r="4" class="open"/><circle cx="284" cy="88" r="4" class="open"/><circle cx="284" cy="88" r="4" class="open"/><circle cx="652" cy="88" r="4" class="open"/><circle cx="652" cy="88" r="4" class="open"/><circle cx="652" cy="88" r="4" class="open"/><circle cx="412" cy="120" r="4" class="open"/><circle cx="412" cy="120" r="4" class="open"/><circle cx="412" cy="120" r="4" class="open"/><circle cx="652" cy="136" r="4" class="open"/><circle cx="652" cy="136" r="4" class="open"/><circle cx="652" cy="136" r="4" class="open"/><circle cx="44" cy="152" r="4" class="open"/><circle cx="44" cy="152" r="4" class="open"/><circle cx="44" cy="152" r="4" class="open"/><circle cx="412" cy="168" r="4" class="open"/><circle cx="412" cy="168" r="4" class="open"/><circle cx="412" cy="168" r="4" class="open"/><circle cx="652" cy="184" r="4" class="open"/><circle cx="652" cy="184" r="4" class="open"/><circle cx="652" cy="184" r="4" class="open"/><circle cx="284" cy="216" r="4" class="open"/><circle cx="284" cy="216" r="4" class="open"/><circle cx="284" cy="216" r="4" class="open"/><circle cx="652" cy="232" r="4" class="open"/><circle cx="652" cy="232" r="4" class="open"/><circle cx="652" cy="232" r="4" class="open"/></svg>