<svg xmlns="http://www.w3.org/2000/svg" width="592" height="304" class="bob" font-family="arial" font-size="14"><defs><marker id="triangle" markerHeight="10" markerUnits="strokeWidth" markerWidth="10" orient="auto" refX="15" refY="10" viewBox="0 0 50 20"><path d="M 0 0 L 30 10 L 0 20 z"/></marker></defs><style>line,path{stroke:#000;stroke-width:2;stroke-opacity:1;fill-opacity:1;stroke-linecap:round;stroke-linejoin:miter}</style><path fill="none" d="M 184 24 L 192 24 M 184 24 L 192 24 L 200 24 M 192 24 L 200 24 L 208 24 M 200 24 L 208 24 L 216 24 M 208 24 L 216 24 L 224 24 M 216 24 L 224 24 L 232 24 M 224 24 L 232 24 L 240 24 M 232 24 L 240 24 L 248 24 M 240 24 L 248 24 L 256 24 M 248 24 L 256 24 L 264 24 M 256 24 L 264 24 L 272 24 M 264 24 L 272 24 L 280 24 M 272 24 L 280 24 L 288 24 M 280 24 L 288 24 L 296 24 M 288 24 L 296 24 L 304 24 M 296 24 L 304 24 L 312 24 M 304 24 L 312 24 L 320 24 M 312 24 L 320 24 L 328 24 M 320 24 L 328 24 L 336 24 M 328 24 L 336 24 L 344 24 M 336 24 L 344 24 L 352 24 M 344 24 L 352 24 L 360 24 M 352 24 L 360 24 L 368 24 M 360 24 L 368 24 L 376 24 M 368 24 L 376 24 L 384 24 M 376 24 L 384 24 L 392 24 M 384 24 L 392 24 L 400 24 M 392 24 L 400 24 L 408 24 M 400 24 L 408 24 L 416 24 M 408 24 L 416 24 L 424 24 M 416 24 L 424 24 L 432 24 M 424 24 L 432 24 L 440 24 M 432 24 L 440 24 L 448 24 M 440 24 L 448 24 L 456 24 M 448 24 L 456 24 L 464 24 M 456 24 L 464 24 L 472 24 M 464 24 L 472 24 L 480 24 M 472 24 L 480 24 L 488 24 M 480 24 L 488 24 M 96 40 A 4 4 0 0 0 92 44 L 92 48 M 96 40 L 104 40 M 96 40 L 104 40 L 112 40 M 104 40 L 112 40 L 120 40 M 112 40 L 120 40 L 128 40 M 120 40 L 128 40 L 136 40 M 128 40 L 136 40 L 144 40 M 136 40 L 144 40 L 152 40 M 144 40 L 152 40 L 160 40 M 152 40 L 160 40 L 168 40 M 160 40 L 168 40 M 172 40 L 168 40 M 172 40 L 176 40 M 172 40 L 172 48 M 176 40 L 184 40 M 176 40 L 184 40 L 192 40 M 184 40 L 192 40 L 200 40 M 192 40 L 200 40 L 208 40 M 200 40 L 208 40 L 216 40 M 208 40 L 216 40 L 224 40 M 216 40 L 224 40 L 232 40 M 224 40 L 232 40 L 240 40 M 232 40 L 240 40 L 248 40 M 240 40 L 248 40 L 256 40 M 248 40 L 256 40 L 264 40 M 256 40 L 264 40 L 272 40 M 264 40 L 272 40 L 280 40 M 272 40 L 280 40 L 288 40 M 280 40 L 288 40 L 296 40 M 288 40 L 296 40 L 304 40 M 296 40 L 304 40 L 312 40 M 304 40 L 312 40 L 320 40 M 312 40 L 320 40 L 328 40 M 320 40 L 328 40 L 336 40 M 328 40 L 336 40 L 344 40 M 336 40 L 344 40 L 352 40 M 344 40 L 352 40 L 360 40 M 352 40 L 360 40 L 368 40 M 360 40 L 368 40 L 376 40 M 368 40 L 376 40 L 384 40 M 376 40 L 384 40 L 392 40 M 384 40 L 392 40 L 400 40 M 392 40 L 400 40 L 408 40 M 400 40 L 408 40 L 416 40 M 408 40 L 416 40 L 424 40 M 416 40 L 424 40 L 432 40 M 424 40 L 432 40 L 440 40 M 432 40 L 440 40 L 448 40 M 440 40 L 448 40 L 456 40 M 448 40 L 456 40 L 464 40 M 456 40 L 464 40 L 472 40 M 464 40 L 472 40 L 480 40 M 472 40 L 480 40 L 488 40 M 480 40 L 488 40 L 496 40 M 488 40 L 496 40 L 504 40 M 496 40 L 504 40 M 508 44 A 4 4 0 0 0 504 40 M 508 44 L 508 48 M 92 48 L 92 64 M 92 48 L 92 64 M 172 48 L 172 64 M 172 48 L 172 64 M 508 48 L 508 64 M 508 48 L 508 64 M 92 64 L 92 80 M 92 64 L 92 80 M 172 64 L 172 80 M 172 64 L 172 80 M 508 64 L 508 80 M 508 64 L 508 80 M 92 80 L 92 96 M 92 80 L 92 96 M 172 80 L 172 96 M 172 80 L 172 96 M 508 80 L 508 96 M 508 80 L 508 96 M 92 100 L 92 96 M 92 100 A 4 4 0 0 0 96 104 L 104 104 M 96 104 L 104 104 L 112 104 M 104 104 L 112 104 L 120 104 M 112 104 L 120 104 L 128 104 M 120 104 L 128 104 L 136 104 M 128 104 L 136 104 L 144 104 M 136 104 L 144 104 L 152 104 M 144 104 L 152 104 L 160 104 M 152 104 L 160 104 L 168 104 M 160 104 L 168 104 M 172 104 L 172 96 M 172 104 L 168 104 M 172 104 L 176 104 L 184 104 M 176 104 L 184 104 L 192 104 M 184 104 L 192 104 L 200 104 M 192 104 L 200 104 L 208 104 M 200 104 L 208 104 M 212 104 L 208 104 M 212 104 L 216 104 M 212 104 L 208 112 M 216 104 L 224 104 M 216 104 L 224 104 L 232 104 M 224 104 L 232 104 L 240 104 M 232 104 L 240 104 L 248 104 M 240 104 L 248 104 L 256 104 M 248 104 L 256 104 L 264 104 M 256 104 L 264 104 M 268 104 L 264 104 M 268 104 L 272 104 M 268 104 L 268 112 M 272 104 L 280 104 M 272 104 L 280 104 L 288 104 M 280 104 L 288 104 L 296 104 M 288 104 L 296 104 L 304 104 M 296 104 L 304 104 L 312 104 M 304 104 L 312 104 L 320 104 M 312 104 L 320 104 L 328 104 M 320 104 L 328 104 L 336 104 M 328 104 L 336 104 L 344 104 M 336 104 L 344 104 L 352 104 M 344 104 L 352 104 L 360 104 M 352 104 L 360 104 L 368 104 M 360 104 L 368 104 L 376 104 M 368 104 L 376 104 M 380 104 L 376 104 M 380 104 L 384 104 M 380 104 L 384 112 M 384 104 L 392 104 M 384 104 L 392 104 L 400 104 M 392 104 L 400 104 L 408 104 M 400 104 L 408 104 L 416 104 M 408 104 L 416 104 L 424 104 M 416 104 L 424 104 L 432 104 M 424 104 L 432 104 L 440 104 M 432 104 L 440 104 L 448 104 M 440 104 L 448 104 L 456 104 M 448 104 L 456 104 L 464 104 M 456 104 L 464 104 L 472 104 M 464 104 L 472 104 L 480 104 M 472 104 L 480 104 L 488 104 M 480 104 L 488 104 L 496 104 M 488 104 L 496 104 L 504 104 M 496 104 L 504 104 M 508 100 L 508 96 M 504 104 A 4 4 0 0 0 508 100 M 200 128 L 208 112 L 200 128 M 268 112 L 268 128 M 268 112 L 268 128 M 392 128 L 384 112 L 392 128 M 192 144 L 200 128 L 192 144 M 268 128 L 268 144 M 268 128 L 268 144 M 400 144 L 392 128 L 400 144 M 184 160 L 192 144 L 184 160 M 268 144 L 268 160 M 268 144 L 268 160 M 408 160 L 400 144 L 408 160 M 176 176 L 184 160 L 176 176 M 416 176 L 408 160 M 16 200 A 4 4 0 0 0 12 204 L 12 208 M 16 200 L 24 200 M 16 200 L 24 200 L 32 200 M 24 200 L 32 200 L 40 200 M 32 200 L 40 200 L 48 200 M 40 200 L 48 200 L 56 200 M 48 200 L 56 200 L 64 200 M 56 200 L 64 200 L 72 200 M 64 200 L 72 200 L 80 200 M 72 200 L 80 200 L 88 200 M 80 200 L 88 200 M 92 200 L 88 200 M 92 200 L 96 200 M 92 200 L 92 208 M 96 200 L 104 200 M 96 200 L 104 200 L 112 200 M 104 200 L 112 200 L 120 200 M 112 200 L 120 200 L 128 200 M 120 200 L 128 200 L 136 200 M 128 200 L 136 200 L 144 200 M 136 200 L 144 200 L 152 200 M 144 200 L 152 200 L 160 200 M 152 200 L 160 200 L 168 200 M 160 200 L 168 200 M 172 204 A 4 4 0 0 0 168 200 M 172 204 L 172 208 M 192 200 A 4 4 0 0 0 188 204 L 188 208 M 192 200 L 200 200 M 192 200 L 200 200 L 208 200 M 200 200 L 208 200 L 216 200 M 208 200 L 216 200 L 224 200 M 216 200 L 224 200 L 232 200 M 224 200 L 232 200 L 240 200 M 232 200 L 240 200 L 248 200 M 240 200 L 248 200 L 256 200 M 248 200 L 256 200 L 264 200 M 256 200 L 264 200 M 268 200 L 264 200 M 268 200 L 272 200 M 268 200 L 268 208 M 272 200 L 280 200 M 272 200 L 280 200 L 288 200 M 280 200 L 288 200 L 296 200 M 288 200 L 296 200 L 304 200 M 296 200 L 304 200 L 312 200 M 304 200 L 312 200 L 320 200 M 312 200 L 320 200 L 328 200 M 320 200 L 328 200 L 336 200 M 328 200 L 336 200 L 344 200 M 336 200 L 344 200 M 348 204 A 4 4 0 0 0 344 200 M 348 204 L 348 208 M 424 200 A 4 4 0 0 0 420 204 L 420 208 M 424 200 L 432 200 M 424 200 L 432 200 L 440 200 M 432 200 L 440 200 L 448 200 M 440 200 L 448 200 L 456 200 M 448 200 L 456 200 L 464 200 M 456 200 L 464 200 L 472 200 M 464 200 L 472 200 L 480 200 M 472 200 L 480 200 L 488 200 M 480 200 L 488 200 L 496 200 M 488 200 L 496 200 M 500 200 L 496 200 M 500 200 L 504 200 M 500 200 L 500 208 M 504 200 L 512 200 M 504 200 L 512 200 L 520 200 M 512 200 L 520 200 L 528 200 M 520 200 L 528 200 L 536 200 M 528 200 L 536 200 L 544 200 M 536 200 L 544 200 L 552 200 M 544 200 L 552 200 L 560 200 M 552 200 L 560 200 L 568 200 M 560 200 L 568 200 L 576 200 M 568 200 L 576 200 M 580 204 A 4 4 0 0 0 576 200 M 580 204 L 580 208 M 12 208 L 12 224 M 12 208 L 12 224 M 92 208 L 92 224 M 92 208 L 92 224 M 172 208 L 172 224 M 172 208 L 172 224 M 188 208 L 188 224 M 188 208 L 188 224 M 268 208 L 268 224 M 268 208 L 268 224 M 348 208 L 348 224 M 348 208 L 348 224 M 420 208 L 420 224 M 420 208 L 420 224 M 500 208 L 500 224 M 500 208 L 500 224 M 580 208 L 580 224 M 580 208 L 580 224 M 12 224 L 12 240 M 12 224 L 12 240 M 92 224 L 92 240 M 92 224 L 92 240 M 172 224 L 172 240 M 172 224 L 172 240 M 188 224 L 188 240 M 188 224 L 188 240 M 268 224 L 268 240 M 268 224 L 268 240 M 348 224 L 348 240 M 348 224 L 348 240 M 420 224 L 420 240 M 420 224 L 420 240 M 500 224 L 500 240 M 500 224 L 500 240 M 580 224 L 580 240 M 580 224 L 580 240 M 12 240 L 12 256 M 12 240 L 12 256 M 92 240 L 92 256 M 92 240 L 92 256 M 172 240 L 172 256 M 172 240 L 172 256 M 188 240 L 188 256 M 188 240 L 188 256 M 268 240 L 268 256 M 268 240 L 268 256 M 348 240 L 348 256 M 348 240 L 348 256 M 420 240 L 420 256 M 420 240 L 420 256 M 500 240 L 500 256 M 500 240 L 500 256 M 580 240 L 580 256 M 580 240 L 580 256 M 12 260 L 12 256 M 12 260 A 4 4 0 0 0 16 264 L 24 264 M 16 264 L 24 264 L 32 264 M 24 264 L 32 264 L 40 264 M 32 264 L 40 264 L 48 264 M 40 264 L 48 264 L 56 264 M 48 264 L 56 264 L 64 264 M 56 264 L 64 264 L 72 264 M 64 264 L 72 264 L 80 264 M 72 264 L 80 264 L 88 264 M 80 264 L 88 264 M 92 264 L 92 256 M 92 264 L 88 264 M 92 264 L 96 264 L 104 264 M 96 264 L 104 264 L 112 264 M 104 264 L 112 264 L 120 264 M 112 264 L 120 264 L 128 264 M 120 264 L 128 264 L 136 264 M 128 264 L 136 264 L 144 264 M 136 264 L 144 264 L 152 264 M 144 264 L 152 264 L 160 264 M 152 264 L 160 264 L 168 264 M 160 264 L 168 264 M 172 260 L 172 256 M 168 264 A 4 4 0 0 0 172 260 M 188 260 L 188 256 M 188 260 A 4 4 0 0 0 192 264 L 200 264 M 192 264 L 200 264 L 208 264 M 200 264 L 208 264 L 216 264 M 208 264 L 216 264 L 224 264 M 216 264 L 224 264 L 232 264 M 224 264 L 232 264 L 240 264 M 232 264 L 240 264 L 248 264 M 240 264 L 248 264 L 256 264 M 248 264 L 256 264 L 264 264 M 256 264 L 264 264 M 268 264 L 268 256 M 268 264 L 264 264 M 268 264 L 272 264 L 280 264 M 272 264 L 280 264 L 288 264 M 280 264 L 288 264 L 296 264 M 288 264 L 296 264 L 304 264 M 296 264 L 304 264 L 312 264 M 304 264 L 312 264 L 320 264 M 312 264 L 320 264 L 328 264 M 320 264 L 328 264 L 336 264 M 328 264 L 336 264 L 344 264 M 336 264 L 344 264 M 348 260 L 348 256 M 344 264 A 4 4 0 0 0 348 260 M 420 260 L 420 256 M 420 260 A 4 4 0 0 0 424 264 L 432 264 M 424 264 L 432 264 L 440 264 M 432 264 L 440 264 L 448 264 M 440 264 L 448 264 L 456 264 M 448 264 L 456 264 L 464 264 M 456 264 L 464 264 L 472 264 M 464 264 L 472 264 L 480 264 M 472 264 L 480 264 L 488 264 M 480 264 L 488 264 L 496 264 M 488 264 L 496 264 M 500 264 L 500 256 M 500 264 L 496 264 M 500 264 L 504 264 L 512 264 M 504 264 L 512 264 L 520 264 M 512 264 L 520 264 L 528 264 M 520 264 L 528 264 L 536 264 M 528 264 L 536 264 L 544 264 M 536 264 L 544 264 L 552 264 M 544 264 L 552 264 L 560 264 M 552 264 L 560 264 L 568 264 M 560 264 L 568 264 L 576 264 M 568 264 L 576 264 M 580 260 L 580 256 M 576 264 A 4 4 0 0 0 580 260 M 104 280 L 112 280 M 104 280 L 112 280 L 120 280 M 112 280 L 120 280 L 128 280 M 120 280 L 128 280 L 136 280 M 128 280 L 136 280 L 144 280 M 136 280 L 144 280 L 152 280 M 144 280 L 152 280"/><path fill="none" stroke-dasharray="3 3"/><line x1="184" x2="180" y1="24" y2="24" marker-end="url(#triangle)"/><line x1="488" x2="500" y1="24" y2="24" marker-end="url(#triangle)"/><line x1="488" x2="500" y1="24" y2="24" marker-end="url(#triangle)"/><line x1="496" x2="500" y1="24" y2="24" marker-end="url(#triangle)"/><line x1="268" x2="268" y1="160" y2="188" marker-end="url(#triangle)"/><line x1="268" x2="268" y1="160" y2="188" marker-end="url(#triangle)"/><line x1="408" x2="422" y1="160" y2="188" marker-end="url(#triangle)"/><line x1="176" x2="170" y1="176" y2="188" marker-end="url(#triangle)"/><line x1="268" x2="268" y1="176" y2="188" marker-end="url(#triangle)"/><line x1="416" x2="422" y1="176" y2="188" marker-end="url(#triangle)"/><line x1="104" x2="100" y1="280" y2="280" marker-end="url(#triangle)"/><line x1="152" x2="164" y1="280" y2="280" marker-end="url(#triangle)"/><line x1="152" x2="164" y1="280" y2="280" marker-end="url(#triangle)"/><line x1="160" x2="164" y1="280" y2="280" marker-end="url(#triangle)"/><text x="233" y="12">Payload</text><text x="297" y="12">larger</text><text x="353" y="12">than</text><text x="393" y="12">1</text><text x="409" y="12">MTU</text><text x="105" y="76">Header</text><text x="25" y="236">Header</text><text x="105" y="236">Chunk</text><text x="153" y="236">1</text><text x="201" y="236">Header</text><text x="281" y="236">Chunk</text><text x="329" y="236">2</text><text x="433" y="236">Header</text><text x="513" y="236">Chunk</text><text x="561" y="236">N</text><text x="105" y="300">1</text><text x="121" y="300">MTU</text></svg>