<svg class="bob" font-family="arial" font-size="14" height="192" width="712" xmlns="http://www.w3.org/2000/svg">
<defs>
<marker id="triangle" markerHeight="10" markerUnits="strokeWidth" markerWidth="10" orient="auto" refX="15" refY="10" viewBox="0 0 50 20">
<path d="M 0 0 L 30 10 L 0 20 z"/>
</marker>
</defs>
<style>

    line, path {
      stroke: black;
      stroke-width: 2;
      stroke-opacity: 1;
      fill-opacity: 1;
      stroke-linecap: round;
      stroke-linejoin: miter;
    }
    circle {
      stroke: black;
      stroke-width: 2;
      stroke-opacity: 1;
      fill-opacity: 1;
      stroke-linecap: round;
      stroke-linejoin: miter;
    }
    circle.solid {
      fill:black;
    }
    circle.open {
      fill:transparent;
    }
    tspan.head{
        fill: none;
        stroke: none;
    }
    
</style>
<path d=" M 16 24 A 4 4 0 0 0 12 28 L 12 32 M 16 24 L 24 24 M 16 24 L 24 24 L 32 24 M 24 24 L 32 24 L 40 24 M 32 24 L 40 24 L 48 24 M 40 24 L 48 24 L 56 24 M 48 24 L 56 24 L 64 24 M 56 24 L 64 24 L 72 24 M 64 24 L 72 24 L 80 24 M 72 24 L 80 24 L 88 24 M 80 24 L 88 24 L 96 24 M 88 24 L 96 24 L 104 24 M 96 24 L 104 24 L 112 24 M 104 24 L 112 24 L 120 24 M 112 24 L 120 24 L 128 24 M 120 24 L 128 24 L 136 24 M 128 24 L 136 24 M 140 28 A 4 4 0 0 0 136 24 M 140 28 L 140 32 M 200 24 A 4 4 0 0 0 196 28 L 196 32 M 200 24 L 208 24 M 200 24 L 208 24 L 216 24 M 208 24 L 216 24 L 224 24 M 216 24 L 224 24 L 232 24 M 224 24 L 232 24 L 240 24 M 232 24 L 240 24 L 248 24 M 240 24 L 248 24 L 256 24 M 248 24 L 256 24 L 264 24 M 256 24 L 264 24 L 272 24 M 264 24 L 272 24 L 280 24 M 272 24 L 280 24 L 288 24 M 280 24 L 288 24 L 296 24 M 288 24 L 296 24 L 304 24 M 296 24 L 304 24 L 312 24 M 304 24 L 312 24 L 320 24 M 312 24 L 320 24 M 324 28 A 4 4 0 0 0 320 24 M 324 28 L 324 32 M 384 24 A 4 4 0 0 0 380 28 L 380 32 M 384 24 L 392 24 M 384 24 L 392 24 L 400 24 M 392 24 L 400 24 L 408 24 M 400 24 L 408 24 L 416 24 M 408 24 L 416 24 L 424 24 M 416 24 L 424 24 L 432 24 M 424 24 L 432 24 L 440 24 M 432 24 L 440 24 L 448 24 M 440 24 L 448 24 L 456 24 M 448 24 L 456 24 L 464 24 M 456 24 L 464 24 L 472 24 M 464 24 L 472 24 L 480 24 M 472 24 L 480 24 L 488 24 M 480 24 L 488 24 L 496 24 M 488 24 L 496 24 L 504 24 M 496 24 L 504 24 M 508 28 A 4 4 0 0 0 504 24 M 508 28 L 508 32 M 568 24 A 4 4 0 0 0 564 28 L 564 32 M 568 24 L 576 24 M 568 24 L 576 24 L 584 24 M 576 24 L 584 24 L 592 24 M 584 24 L 592 24 L 600 24 M 592 24 L 600 24 L 608 24 M 600 24 L 608 24 L 616 24 M 608 24 L 616 24 L 624 24 M 616 24 L 624 24 L 632 24 M 624 24 L 632 24 L 640 24 M 632 24 L 640 24 L 648 24 M 640 24 L 648 24 L 656 24 M 648 24 L 656 24 L 664 24 M 656 24 L 664 24 L 672 24 M 664 24 L 672 24 L 680 24 M 672 24 L 680 24 L 688 24 M 680 24 L 688 24 M 692 28 A 4 4 0 0 0 688 24 M 692 28 L 692 32 M 12 32 L 12 48 M 12 32 L 12 48 M 140 32 L 140 48 M 140 32 L 140 48 M 196 32 L 196 48 M 196 32 L 196 48 M 324 32 L 324 48 M 324 32 L 324 48 M 380 32 L 380 48 M 380 32 L 380 48 M 508 32 L 508 48 M 508 32 L 508 48 M 564 32 L 564 48 M 564 32 L 564 48 M 692 32 L 692 48 M 692 32 L 692 48 M 12 48 L 12 64 M 12 48 L 12 64 M 140 56 L 140 48 M 140 56 L 140 64 M 140 56 L 144 56 L 152 56 M 144 56 L 152 56 L 160 56 M 152 56 L 160 56 L 168 56 M 160 56 L 168 56 L 176 56 M 168 56 L 176 56 M 196 56 L 196 48 M 196 56 L 196 64 M 196 56 L 192 56 M 324 56 L 324 48 M 324 56 L 324 64 M 324 56 L 328 56 L 336 56 M 328 56 L 336 56 L 344 56 M 336 56 L 344 56 L 352 56 M 344 56 L 352 56 L 360 56 M 352 56 L 360 56 M 380 56 L 380 48 M 380 56 L 380 64 M 380 56 L 376 56 M 508 56 L 508 48 M 508 56 L 508 64 M 508 56 L 512 56 L 520 56 M 512 56 L 520 56 M 528 56 L 536 56 M 528 56 L 536 56 M 564 56 L 564 48 M 564 56 L 564 64 M 564 56 L 560 56 M 692 48 L 692 64 M 692 48 L 692 64 M 12 64 L 12 80 M 12 64 L 12 80 M 140 64 L 140 80 M 140 64 L 140 80 M 196 64 L 196 80 M 196 64 L 196 80 M 324 64 L 324 80 M 324 64 L 324 80 M 380 64 L 380 80 M 380 64 L 380 80 M 508 64 L 508 80 M 508 64 L 508 80 M 564 64 L 564 80 M 564 64 L 564 80 M 692 64 L 692 80 M 692 64 L 692 80 M 12 80 L 12 96 M 12 80 L 12 96 M 140 80 L 140 96 M 140 80 L 140 96 M 196 88 L 196 80 M 196 88 L 200 88 M 196 88 L 196 96 M 200 88 L 208 88 M 200 88 L 208 88 L 216 88 M 208 88 L 216 88 L 224 88 M 216 88 L 224 88 L 232 88 M 224 88 L 232 88 L 240 88 M 232 88 L 240 88 L 248 88 M 240 88 L 248 88 L 256 88 M 248 88 L 256 88 L 264 88 M 256 88 L 264 88 L 272 88 M 264 88 L 272 88 L 280 88 M 272 88 L 280 88 L 288 88 M 280 88 L 288 88 L 296 88 M 288 88 L 296 88 L 304 88 M 296 88 L 304 88 L 312 88 M 304 88 L 312 88 L 320 88 M 312 88 L 320 88 M 324 88 L 324 80 M 324 88 L 320 88 M 324 88 L 324 96 M 380 88 L 380 80 M 380 88 L 384 88 M 380 88 L 380 96 M 384 88 L 392 88 M 384 88 L 392 88 L 400 88 M 392 88 L 400 88 L 408 88 M 400 88 L 408 88 L 416 88 M 408 88 L 416 88 L 424 88 M 416 88 L 424 88 L 432 88 M 424 88 L 432 88 L 440 88 M 432 88 L 440 88 L 448 88 M 440 88 L 448 88 L 456 88 M 448 88 L 456 88 L 464 88 M 456 88 L 464 88 L 472 88 M 464 88 L 472 88 L 480 88 M 472 88 L 480 88 L 488 88 M 480 88 L 488 88 L 496 88 M 488 88 L 496 88 L 504 88 M 496 88 L 504 88 M 508 88 L 508 80 M 508 88 L 504 88 M 508 88 L 508 96 M 564 80 L 564 96 M 564 80 L 564 96 M 692 80 L 692 96 M 692 80 L 692 96 M 12 96 L 12 112 M 12 96 L 12 112 M 140 96 L 140 112 M 140 96 L 140 112 M 196 96 L 196 112 M 196 96 L 196 112 M 324 96 L 324 112 M 324 96 L 324 112 M 380 96 L 380 112 M 380 96 L 380 112 M 508 96 L 508 112 M 508 96 L 508 112 M 564 96 L 564 112 M 564 96 L 564 112 M 692 96 L 692 112 M 692 96 L 692 112 M 12 112 L 12 128 M 12 112 L 12 128 M 140 120 L 140 112 M 140 120 L 140 128 M 140 120 L 144 120 M 152 120 L 160 120 M 152 120 L 160 120 L 168 120 M 160 120 L 168 120 L 176 120 M 168 120 L 176 120 L 184 120 M 176 120 L 184 120 L 192 120 M 184 120 L 192 120 M 196 120 L 196 112 M 196 120 L 196 128 M 196 120 L 192 120 M 324 120 L 324 112 M 324 120 L 324 128 M 324 120 L 328 120 M 336 120 L 344 120 M 336 120 L 344 120 L 352 120 M 344 120 L 352 120 L 360 120 M 352 120 L 360 120 L 368 120 M 360 120 L 368 120 L 376 120 M 368 120 L 376 120 M 380 120 L 380 112 M 380 120 L 380 128 M 380 120 L 376 120 M 508 120 L 508 112 M 508 120 L 508 128 M 508 120 L 512 120 M 520 120 L 528 120 M 520 120 L 528 120 M 536 120 L 544 120 M 536 120 L 544 120 M 552 120 L 560 120 M 552 120 L 560 120 M 564 120 L 564 112 M 564 120 L 564 128 M 564 120 L 560 120 M 692 112 L 692 128 M 692 112 L 692 128 M 12 128 L 12 144 M 12 128 L 12 144 M 140 128 L 140 144 M 140 128 L 140 144 M 196 128 L 196 144 M 196 128 L 196 144 M 324 128 L 324 144 M 324 128 L 324 144 M 380 128 L 380 144 M 380 128 L 380 144 M 508 128 L 508 144 M 508 128 L 508 144 M 564 128 L 564 144 M 564 128 L 564 144 M 692 128 L 692 144 M 692 128 L 692 144 M 12 148 L 12 144 M 12 148 A 4 4 0 0 0 16 152 L 24 152 M 16 152 L 24 152 L 32 152 M 24 152 L 32 152 L 40 152 M 32 152 L 40 152 L 48 152 M 40 152 L 48 152 L 56 152 M 48 152 L 56 152 L 64 152 M 56 152 L 64 152 L 72 152 M 64 152 L 72 152 L 80 152 M 72 152 L 80 152 L 88 152 M 80 152 L 88 152 L 96 152 M 88 152 L 96 152 L 104 152 M 96 152 L 104 152 L 112 152 M 104 152 L 112 152 L 120 152 M 112 152 L 120 152 L 128 152 M 120 152 L 128 152 L 136 152 M 128 152 L 136 152 M 140 148 L 140 144 M 136 152 A 4 4 0 0 0 140 148 M 196 148 L 196 144 M 196 148 A 4 4 0 0 0 200 152 L 208 152 M 200 152 L 208 152 L 216 152 M 208 152 L 216 152 L 224 152 M 216 152 L 224 152 L 232 152 M 224 152 L 232 152 L 240 152 M 232 152 L 240 152 L 248 152 M 240 152 L 248 152 L 256 152 M 248 152 L 256 152 L 264 152 M 256 152 L 264 152 L 272 152 M 264 152 L 272 152 L 280 152 M 272 152 L 280 152 L 288 152 M 280 152 L 288 152 L 296 152 M 288 152 L 296 152 L 304 152 M 296 152 L 304 152 L 312 152 M 304 152 L 312 152 L 320 152 M 312 152 L 320 152 M 324 148 L 324 144 M 320 152 A 4 4 0 0 0 324 148 M 380 148 L 380 144 M 380 148 A 4 4 0 0 0 384 152 L 392 152 M 384 152 L 392 152 L 400 152 M 392 152 L 400 152 L 408 152 M 400 152 L 408 152 L 416 152 M 408 152 L 416 152 L 424 152 M 416 152 L 424 152 L 432 152 M 424 152 L 432 152 L 440 152 M 432 152 L 440 152 L 448 152 M 440 152 L 448 152 L 456 152 M 448 152 L 456 152 L 464 152 M 456 152 L 464 152 L 472 152 M 464 152 L 472 152 L 480 152 M 472 152 L 480 152 L 488 152 M 480 152 L 488 152 L 496 152 M 488 152 L 496 152 L 504 152 M 496 152 L 504 152 M 508 148 L 508 144 M 504 152 A 4 4 0 0 0 508 148 M 564 148 L 564 144 M 564 148 A 4 4 0 0 0 568 152 L 576 152 M 568 152 L 576 152 L 584 152 M 576 152 L 584 152 L 592 152 M 584 152 L 592 152 L 600 152 M 592 152 L 600 152 L 608 152 M 600 152 L 608 152 L 616 152 M 608 152 L 616 152 L 624 152 M 616 152 L 624 152 L 632 152 M 624 152 L 632 152 L 640 152 M 632 152 L 640 152 L 648 152 M 640 152 L 648 152 L 656 152 M 648 152 L 656 152 L 664 152 M 656 152 L 664 152 L 672 152 M 664 152 L 672 152 L 680 152 M 672 152 L 680 152 L 688 152 M 680 152 L 688 152 M 692 148 L 692 144 M 688 152 A 4 4 0 0 0 692 148" fill="none"/>
<path d="" fill="none" stroke-dasharray="3 3"/>
<line marker-end="url(#triangle)" x1="176" x2="188" y1="56" y2="56"/>
<line marker-end="url(#triangle)" x1="176" x2="188" y1="56" y2="56"/>
<line marker-end="url(#triangle)" x1="184" x2="188" y1="56" y2="56"/>
<line marker-end="url(#triangle)" x1="360" x2="372" y1="56" y2="56"/>
<line marker-end="url(#triangle)" x1="360" x2="372" y1="56" y2="56"/>
<line marker-end="url(#triangle)" x1="368" x2="372" y1="56" y2="56"/>
<line marker-end="url(#triangle)" x1="544" x2="556" y1="56" y2="56"/>
<line marker-end="url(#triangle)" x1="544" x2="556" y1="56" y2="56"/>
<line marker-end="url(#triangle)" x1="552" x2="556" y1="56" y2="56"/>
<line marker-end="url(#triangle)" x1="152" x2="148" y1="120" y2="120"/>
<line marker-end="url(#triangle)" x1="336" x2="332" y1="120" y2="120"/>
<line marker-end="url(#triangle)" x1="520" x2="516" y1="120" y2="120"/>
<text x="225" y="60">
Processor
</text>
<text x="409" y="60">
Processor
</text>
<text x="49" y="92">
Device
</text>
<text x="593" y="92">
Processor
</text>
<text x="225" y="124">
Producer
</text>
<text x="409" y="124">
Producer
</text>
<text x="209" y="172">
Stack
</text>
<text x="257" y="172">
Layer
</text>
<text x="305" y="172">
1
</text>
<text x="393" y="172">
Stack
</text>
<text x="441" y="172">
Layer
</text>
<text x="489" y="172">
2
</text>
<text x="577" y="172">
Stack
</text>
<text x="625" y="172">
Layer
</text>
<text x="673" y="172">
N
</text>
<circle class="solid" cx="140" cy="56" r="4"/>
<circle class="solid" cx="140" cy="56" r="4"/>
<circle class="solid" cx="140" cy="56" r="4"/>
<circle class="solid" cx="196" cy="56" r="4"/>
<circle class="solid" cx="196" cy="56" r="4"/>
<circle class="solid" cx="196" cy="56" r="4"/>
<circle class="solid" cx="324" cy="56" r="4"/>
<circle class="solid" cx="324" cy="56" r="4"/>
<circle class="solid" cx="324" cy="56" r="4"/>
<circle class="solid" cx="380" cy="56" r="4"/>
<circle class="solid" cx="380" cy="56" r="4"/>
<circle class="solid" cx="380" cy="56" r="4"/>
<circle class="solid" cx="508" cy="56" r="4"/>
<circle class="solid" cx="508" cy="56" r="4"/>
<circle class="solid" cx="508" cy="56" r="4"/>
<circle class="solid" cx="564" cy="56" r="4"/>
<circle class="solid" cx="564" cy="56" r="4"/>
<circle class="solid" cx="564" cy="56" r="4"/>
<circle class="solid" cx="140" cy="120" r="4"/>
<circle class="solid" cx="140" cy="120" r="4"/>
<circle class="solid" cx="140" cy="120" r="4"/>
<circle class="solid" cx="196" cy="120" r="4"/>
<circle class="solid" cx="196" cy="120" r="4"/>
<circle class="solid" cx="196" cy="120" r="4"/>
<circle class="solid" cx="324" cy="120" r="4"/>
<circle class="solid" cx="324" cy="120" r="4"/>
<circle class="solid" cx="324" cy="120" r="4"/>
<circle class="solid" cx="380" cy="120" r="4"/>
<circle class="solid" cx="380" cy="120" r="4"/>
<circle class="solid" cx="380" cy="120" r="4"/>
<circle class="solid" cx="508" cy="120" r="4"/>
<circle class="solid" cx="508" cy="120" r="4"/>
<circle class="solid" cx="508" cy="120" r="4"/>
<circle class="solid" cx="564" cy="120" r="4"/>
<circle class="solid" cx="564" cy="120" r="4"/>
<circle class="solid" cx="564" cy="120" r="4"/>
</svg>